<svg xmlns="http://www.w3.org/2000/svg" width="24.313" height="24.313" viewBox="0 0 24.313 24.313"><defs><style>.a{fill:#fff;}</style></defs><path class="a" d="M24.3.882a1,1,0,0,0-.062-.25.03.03,0,0,1,0-.007h0A1.031,1.031,0,0,0,24.1.395c-.013-.017-.026-.033-.041-.048a1.034,1.034,0,0,0-.194-.175l-.006,0a1,1,0,0,0-.23-.109L23.567.04A1.01,1.01,0,0,0,23.3,0H16.209a1.013,1.013,0,0,0,0,2.026h4.645L14.808,8.073A9.123,9.123,0,1,0,16.24,9.506l6.047-6.047V8.1a1.013,1.013,0,1,0,2.026,0V1.013c0-.021,0-.042-.006-.062S24.3.905,24.3.882ZM9.118,22.287A7.1,7.1,0,1,1,16.209,15.2,7.1,7.1,0,0,1,9.118,22.287Zm0,0"/></svg>