<svg xmlns="http://www.w3.org/2000/svg" width="21.172" height="31.883" viewBox="0 0 21.172 31.883"><defs><style>.a{fill:#fff;}</style></defs><g transform="translate(-799 -426.117)"><g transform="translate(799 426.117)"><path class="a" d="M104.075,18.069a10.6,10.6,0,1,0-8.735,3.023v3.545H92.848a1.246,1.246,0,1,0,0,2.491H95.34v3.509a1.246,1.246,0,0,0,2.492,0V27.128h2.492a1.246,1.246,0,1,0,0-2.491H97.832V21.092A10.541,10.541,0,0,0,104.075,18.069ZM90.859,16.307a8.1,8.1,0,1,1,11.454,0A8.1,8.1,0,0,1,90.859,16.307Z" transform="translate(-85.999 0)"/></g></g></svg>